<svg xmlns="http://www.w3.org/2000/svg" viewBox="0 0 128.8 128.8">
  <style>
	  path {fill: #FFFFFF;} @media (prefers-color-scheme: light) { path {fill: #121212;}}</style>
  <defs>
    <clipPath id="a" clipPathUnits="userSpaceOnUse">
      <path fill="#fff" stroke-width="2.6" d="M163.2 361.6h480v487h-480ZM382.4 1091l48.8-5.7 56.4-318.6 122-14.2 7.5-42.7L324.8 744l-7.5 42.6 121.5-14.2z"/>
    </clipPath>
  </defs>
  <path fill="#1a1a1a" fill-rule="evenodd" d="M276.8 366.6a38.7 38.7 0 0 0-37.6 31l-37.9 210.6a49.5 63.9 73.3 0 1 3.5-2 49.5 63.9 73.3 0 1 7-3.2 49.5 63.9 73.3 0 1 7.3-2.5 49.5 63.9 73.3 0 1 7.5-1.8 49.5 63.9 73.3 0 1 7.6-1.1 49.5 63.9 73.3 0 1 7.5-.4 77.3 77.3 0 0 1 20 2.8 57.5 57.5 0 0 1 5.8 2.1l21-121.2 256.2-43.6L513.4 619a49.5 63.9 73.3 0 1-.4 2 49.5 63.9 73.3 0 1-.5 2 49.5 63.9 73.3 0 1-.6 2.1 49.5 63.9 73.3 0 1-.7 2 49.5 63.9 73.3 0 1-.8 2 49.5 63.9 73.3 0 1-1 2 49.5 63.9 73.3 0 1-.9 2 49.5 63.9 73.3 0 1-1 2 49.5 63.9 73.3 0 1-1.3 2 49.5 63.9 73.3 0 1-1.2 1.8 49.5 63.9 73.3 0 1-1.4 1.9 49.5 63.9 73.3 0 1-1.4 1.8 49.5 63.9 73.3 0 1-1.5 1.8 49.5 63.9 73.3 0 1-1.6 1.8 49.5 63.9 73.3 0 1-1.7 1.7 49.5 63.9 73.3 0 1-1.8 1.7 49.5 63.9 73.3 0 1-1.8 1.6 49.5 63.9 73.3 0 1-1.9 1.5 49.5 63.9 73.3 0 1-2 1.5 49.5 63.9 73.3 0 1-2 1.5 49.5 63.9 73.3 0 1-2 1.4 49.5 63.9 73.3 0 1-2.2 1.3 49.5 63.9 73.3 0 1-2.2 1.3 49.5 63.9 73.3 0 1-2.2 1.2 49.5 63.9 73.3 0 1-2.3 1 49.5 63.9 73.3 0 1-2.3 1.1 49.5 63.9 73.3 0 1-2.4 1 49.5 63.9 73.3 0 1-2.4 1 49.5 63.9 73.3 0 1-2.4.8 49.5 63.9 73.3 0 1-2.4.8 49.5 63.9 73.3 0 1-2.5.6 49.5 63.9 73.3 0 1-2.5.7 49.5 63.9 73.3 0 1-2.5.5 49.5 63.9 73.3 0 1-2.6.4 49.5 63.9 73.3 0 1-2.5.4 49.5 63.9 73.3 0 1-2.5.3 49.5 63.9 73.3 0 1-2.5.2 49.5 63.9 73.3 0 1-2.6.1 49.5 63.9 73.3 0 1-2.5 0 49.5 63.9 73.3 0 1-7.4-.3 49.5 63.9 73.3 0 1-7.2-1.1 49.5 63.9 73.3 0 1-6.9-1.8 49.5 63.9 73.3 0 1-6.4-2.6 49.5 63.9 73.3 0 1-5.9-3.1 49.5 63.9 73.3 0 1-5.2-3.8 49.5 63.9 73.3 0 1-4.6-4.4 49.5 63.9 73.3 0 1-3.8-4.8 49.5 63.9 73.3 0 1-3-5.3 49.5 63.9 73.3 0 1-2-5.6 49.5 63.9 73.3 0 1-1.3-5.8 49.5 63.9 73.3 0 1-.3-6 49.5 63.9 73.3 0 1 .6-6.2 49.5 63.9 73.3 0 1 1.5-6.1 49.5 63.9 73.3 0 1 2.4-6 49.5 63.9 73.3 0 1 3.3-6 49.5 63.9 73.3 0 1 4-5.5 49.5 63.9 73.3 0 1 4.8-5.3 49.5 63.9 73.3 0 1 5.5-4.8 49.5 63.9 73.3 0 1 6-4.4 49.5 63.9 73.3 0 1 6.6-3.8 49.5 63.9 73.3 0 1 7-3.1 49.5 63.9 73.3 0 1 7.2-2.6 49.5 63.9 73.3 0 1 7.5-1.8 49.5 63.9 73.3 0 1 7.6-1.1 49.5 63.9 73.3 0 1 7.6-.4 77.5 77.5 0 0 1 20 2.8 57.4 57.4 0 0 1 5.8 2.2l14.7-85.3-183 31L295 648a49.5 63.9 73.3 0 1-.4 2 49.5 63.9 73.3 0 1-.5 2 49.5 63.9 73.3 0 1-.6 2.1 49.5 63.9 73.3 0 1-.7 2 49.5 63.9 73.3 0 1-.8 2 49.5 63.9 73.3 0 1-.9 2 49.5 63.9 73.3 0 1-1 2 49.5 63.9 73.3 0 1-1 2 49.5 63.9 73.3 0 1-1.2 1.9 49.5 63.9 73.3 0 1-1.3 1.9 49.5 63.9 73.3 0 1-1.3 1.9 49.5 63.9 73.3 0 1-1.5 1.8 49.5 63.9 73.3 0 1-1.5 1.8 49.5 63.9 73.3 0 1-1.6 1.8 49.5 63.9 73.3 0 1-1.7 1.7 49.5 63.9 73.3 0 1-1.7 1.6 49.5 63.9 73.3 0 1-1.8 1.6 49.5 63.9 73.3 0 1-2 1.6 49.5 63.9 73.3 0 1-1.9 1.5 49.5 63.9 73.3 0 1-2 1.5 49.5 63.9 73.3 0 1-2 1.3 49.5 63.9 73.3 0 1-2.2 1.4 49.5 63.9 73.3 0 1-2.2 1.2 49.5 63.9 73.3 0 1-2.2 1.2 49.5 63.9 73.3 0 1-2.3 1.2 49.5 63.9 73.3 0 1-2.4 1 49.5 63.9 73.3 0 1-2.3 1 49.5 63.9 73.3 0 1-2.4 1 49.5 63.9 73.3 0 1-2.4.8 49.5 63.9 73.3 0 1-2.5.7 49.5 63.9 73.3 0 1-2.5.7 49.5 63.9 73.3 0 1-2.5.6 49.5 63.9 73.3 0 1-2.5.6 49.5 63.9 73.3 0 1-2.5.4 49.5 63.9 73.3 0 1-2.5.4 49.5 63.9 73.3 0 1-2.6.3 49.5 63.9 73.3 0 1-2.5.2 49.5 63.9 73.3 0 1-2.5 0 49.5 63.9 73.3 0 1-2.5.1 49.5 63.9 73.3 0 1-7.5-.3 49.5 63.9 73.3 0 1-7.2-1.1 49.5 63.9 73.3 0 1-6.8-1.9 49.5 63.9 73.3 0 1-6.4-2.5 49.5 63.9 73.3 0 1-5.9-3.2 49.5 63.9 73.3 0 1-3.4-2.4l-18.3 102a28.9 28.9 0 0 0 27.5 34.9l331.8 19a38.5 38.5 0 0 0 39.3-31l70.5-391.8a29 29 0 0 0-27.5-34.9l-331.8-19-1.7-.1z" clip-path="url(#a)" transform="translate(-42.3 -95.7) scale(.26458)"/>
</svg>
